<svg xmlns="http://www.w3.org/2000/svg" width="18" height="20" viewBox="0 0 18 20">
    <g fill="none" fill-rule="nonzero" stroke="#FFF" stroke-width="1.111" transform="translate(0 1.111)">
        <circle cx="8.889" cy="1.185" r="1.185"/>
        <path d="M7.111 16a1.778 1.778 0 1 0 3.556 0"/>
        <rect width="16.667" height="2.667" x=".556" y="13" rx="1.333"/>
        <path d="M14.222 8.296c0-3.273-2.388-5.926-5.333-5.926-2.946 0-5.333 2.653-5.333 5.926"/>
        <path stroke-linecap="square" d="M3.553 8.811c-.007 1.125-.108 1.906-.302 2.343-.195.438-.663.954-1.405 1.546M14.222 8.811c.007 1.125.108 1.906.303 2.343.195.438.663.954 1.404 1.546"/>
    </g>
</svg>
