<svg xmlns="http://www.w3.org/2000/svg" viewBox="0 0 52.04 13.63"><path class="a" d="M5.01 1.27h1.14a3.84 3.84 0 0 1 2.05.26 3.63 3.63 0 0 1 1.64 2.19c.17.48.17.48.58.31h.32V.23H.01V.9h.44a1.28 1.28 0 0 1 1 .47c.41.66.48 1.4.48 5.25 0 4.09-.09 5.09-.48 5.6a1.08 1.08 0 0 1-.83.44c-.61.11-.61.1-.61.37a.4.4 0 0 0 0 .28h6.77a.63.63 0 0 0 0-.57 3.45 3.45 0 0 0-.5-.1 3.34 3.34 0 0 1-.54-.11 1.8 1.8 0 0 1-.73-1.63c-.1-.66-.15-1.87-.15-2.87v-.79h.4a5.4 5.4 0 0 1 1.48.16 1.85 1.85 0 0 1 .86 1.32l.09.31h.61V4.6h-.56l-.09.43a1.78 1.78 0 0 1-.91 1.32 1.67 1.67 0 0 1-.73.05H4.86V5.32c0-1.12.06-3.48.1-3.85Zm46.8 7.93a3.63 3.63 0 0 0-2.07-1.57 5 5 0 0 1-1.79-1 1 1 0 0 1-.29-.89 1.19 1.19 0 0 1 .35-.84 1.21 1.21 0 0 1 1.2-.33 2.52 2.52 0 0 1 1.77 1.88c.16.45.18.45.47.33l.18-.07V4.22l-.13-.06a7.73 7.73 0 0 0-3.07-.42 3.6 3.6 0 0 0-2.4 1 2.76 2.76 0 0 0-.87 2.16 2.37 2.37 0 0 0 .68 1.64 4.06 4.06 0 0 0 1.7 1c1.55.61 2 1 2 1.71a1.32 1.32 0 0 1-1 1.31 2.47 2.47 0 0 1-1.06 0 3.08 3.08 0 0 1-1.87-2.11l-.13-.32h-.18a.8.8 0 0 0-.25.06h-.1v2.84h.17a10.31 10.31 0 0 0 2.08.46h1a3.92 3.92 0 0 0 1.29-.12 3.11 3.11 0 0 0 2.36-2 2.32 2.32 0 0 0 .18-.9 2.49 2.49 0 0 0-.22-1.27Zm-9.42-5.17a4.61 4.61 0 0 0-3.77.09 4.39 4.39 0 0 0-2.29 2.73 5.34 5.34 0 0 0-.27 2 5.47 5.47 0 0 0 .09 1.1 4.44 4.44 0 0 0 3.59 3.58 7 7 0 0 0 1.75 0 4.8 4.8 0 0 0 1.7-.65 3 3 0 0 0 1.06-1 .5.5 0 0 0-.24-.31 1.29 1.29 0 0 0-.32.17 2.86 2.86 0 0 1-1.68.47 2.67 2.67 0 0 1-2.13-.84 2.39 2.39 0 0 1-.51-.68 4.65 4.65 0 0 1-.49-2V8.3h5.54v-.2a4.91 4.91 0 0 0 0-.6 4 4 0 0 0-2.03-3.47ZM39.6 7.49h-.7V6.9c.23-1.51.8-2.41 1.5-2.41s1 .89 1.13 2.52v.46h-.6ZM25.22 3.7a2.1 2.1 0 0 0-1 .21 3.35 3.35 0 0 0-1.55 1.55l-.13.24v-2h-.05c-.12 0-3.82.74-3.94.79s-.08.06-.08.24 0 .21.08.22l.39.08a.72.72 0 0 1 .56.29c.25.33.3.91.3 3.38a19.31 19.31 0 0 1-.14 3.33.82.82 0 0 1-.69.65l-.34.07h-.13v.28a.4.4 0 0 0 0 .29h5.59v-.29a.73.73 0 0 0 0-.29 5.59 5.59 0 0 1-1-.13 1 1 0 0 1-.53-1c-.08-.58-.12-2.28-.1-3.58s0-1.38.11-1.47a1.8 1.8 0 0 1 1.17-.37 2.61 2.61 0 0 1 1.14.29 1.5 1.5 0 0 0 .39.15s1-2.42 1-2.53a1.18 1.18 0 0 0-1.05-.4Zm-6.74 4.2a4.49 4.49 0 0 0-2.06-3.56 5.2 5.2 0 0 0-4.68-.13 4.52 4.52 0 0 0-2.19 2.6 6.68 6.68 0 0 0 0 3.84 4.19 4.19 0 0 0 1.07 1.81 4.06 4.06 0 0 0 2.31 1.12 10.08 10.08 0 0 0 1.68 0 5.29 5.29 0 0 0 .61-.13 4.45 4.45 0 0 0 3.19-3.55 8.74 8.74 0 0 0 .07-2Zm-4.16 5c-1 .3-1.75-.67-2-2.71a18.74 18.74 0 0 1 0-3.21c.2-1.64.71-2.47 1.5-2.47a1 1 0 0 1 .84.37c.67.67 1 2 1 4a7.41 7.41 0 0 1-.52 3.32 1.52 1.52 0 0 1-.82.65v.05Zm18-9a3.33 3.33 0 0 0-.85 0 3.78 3.78 0 0 0-1.57.34l-.31.13V2.2a14.91 14.91 0 0 0 0-2.2c-.12 0-3.94.73-4 .76a.31.31 0 0 0 0 .23c0 .21 0 .2.45.3a1.29 1.29 0 0 1 .36.14 1.23 1.23 0 0 1 .37.69 11.45 11.45 0 0 1 .11 2.3v8.78l.27.06c.4.09 1.53.28 1.9.32a14 14 0 0 0 2.22 0 4.53 4.53 0 0 0 3.74-2.81 6.89 6.89 0 0 0 .38-1.52 9 9 0 0 0-.07-2.11 3.85 3.85 0 0 0-3-3.24Zm-2.62 8.83c0-.13-.1-4.51-.08-6.26V5.1l.29-.07a2.08 2.08 0 0 1 .59 0 1 1 0 0 1 .62.14 3 3 0 0 1 1.29 2.28 11 11 0 0 1 0 2.19 4.81 4.81 0 0 1-1.16 2.87 1.39 1.39 0 0 1-.71.36 1.78 1.78 0 0 1-.61 0c-.19 0-.19-.06-.19-.14Z"/></svg>
